<svg id="Layer_2" enable-background="new 0 0 24 24" height="512" viewBox="0 0 24 24" width="512" xmlns="http://www.w3.org/2000/svg"><g><path d="m12 24c-5.79 0-10.5-4.71-10.5-10.5s4.71-10.5 10.5-10.5 10.5 4.71 10.5 10.5-4.71 10.5-10.5 10.5zm0-20c-5.238 0-9.5 4.262-9.5 9.5s4.262 9.5 9.5 9.5 9.5-4.262 9.5-9.5-4.262-9.5-9.5-9.5z"/></g><g><path d="m15.5 18.5c-.148 0-.296-.066-.395-.193l-3.5-4.5c-.068-.088-.105-.196-.105-.307v-6c0-.276.224-.5.5-.5s.5.224.5.5v5.829l3.395 4.364c.17.218.131.532-.088.702-.091.071-.2.105-.307.105z"/></g><g><path d="m15.5 1h-7c-.276 0-.5-.224-.5-.5s.224-.5.5-.5h7c.276 0 .5.224.5.5s-.224.5-.5.5z"/></g><g><path d="m12 4c-.276 0-.5-.224-.5-.5v-3c0-.276.224-.5.5-.5s.5.224.5.5v3c0 .276-.224.5-.5.5z"/></g><g><path d="m19.07 6.93c-.128 0-.256-.049-.354-.146-.195-.195-.195-.512 0-.707l2.43-2.43c.195-.195.512-.195.707 0s.195.512 0 .707l-2.43 2.43c-.097.097-.225.146-.353.146z"/></g></svg>