<svg width="512" height="512" viewBox="0 0 512 512" fill="none" xmlns="http://www.w3.org/2000/svg">
<rect width="512" height="512" fill="#02C3BD"/>
<path d="M256 396C188.45 396 133.5 341.05 133.5 273.5C133.5 205.95 188.45 151 256 151C323.55 151 378.5 205.95 378.5 273.5C378.5 341.05 323.55 396 256 396ZM256 162.667C194.89 162.667 145.167 212.39 145.167 273.5C145.167 334.61 194.89 384.333 256 384.333C317.11 384.333 366.833 334.61 366.833 273.5C366.833 212.39 317.11 162.667 256 162.667Z" fill="black" stroke="white" stroke-width="12"/>
<path d="M296.833 331.833C295.107 331.833 293.38 331.063 292.225 329.582L251.392 277.082C250.598 276.055 250.167 274.795 250.167 273.5V203.5C250.167 200.28 252.78 197.667 256 197.667C259.22 197.667 261.833 200.28 261.833 203.5V271.505L301.442 322.418C303.425 324.962 302.97 328.625 300.415 330.608C299.353 331.437 298.082 331.833 296.833 331.833V331.833Z" fill="black" stroke="white" stroke-width="12"/>
<path d="M296.833 127.667H215.167C211.947 127.667 209.333 125.053 209.333 121.833C209.333 118.613 211.947 116 215.167 116H296.833C300.053 116 302.667 118.613 302.667 121.833C302.667 125.053 300.053 127.667 296.833 127.667Z" fill="black" stroke="white" stroke-width="12"/>
<path d="M256 162.667C252.78 162.667 250.167 160.053 250.167 156.833V121.833C250.167 118.613 252.78 116 256 116C259.22 116 261.833 118.613 261.833 121.833V156.833C261.833 160.053 259.22 162.667 256 162.667Z" fill="black" stroke="white" stroke-width="12"/>
<path d="M338.483 196.85C336.99 196.85 335.497 196.278 334.353 195.147C332.078 192.872 332.078 189.173 334.353 186.898L362.703 158.548C364.978 156.273 368.677 156.273 370.952 158.548C373.227 160.823 373.227 164.522 370.952 166.797L342.602 195.147C341.47 196.278 339.977 196.85 338.483 196.85V196.85Z" fill="black" stroke="white" stroke-width="12"/>
</svg>
